<svg xmlns="http://www.w3.org/2000/svg" xmlns:xlink="http://www.w3.org/1999/xlink" viewBox="0 0 206.78 230.4"><defs><style>.cls-1{fill:#efefef;}.cls-2{fill:none;stroke-width:12px;stroke:url(#Degradado_sin_nombre_2);}.cls-3{fill:#e3a503;}.cls-4{fill:#d6b300;}.cls-5{fill:#ffd600;}.cls-6{fill:#ffa800;}.cls-7{fill:#ea2a00;}.cls-8{fill:#b12000;}</style><radialGradient id="Degradado_sin_nombre_2" cx="-1239.03" cy="934.53" r="1" gradientTransform="matrix(0, 553.15, 2152.66, 0, -2011621.27, 685307.76)" gradientUnits="userSpaceOnUse"><stop offset="0.13" stop-color="#ffb800"/><stop offset="0.25" stop-color="red"/><stop offset="0.42" stop-color="#ffb800"/></radialGradient></defs><title>logo_1</title><g id="Capa_2" data-name="Capa 2"><g id="Capa_1-2" data-name="Capa 1"><path class="cls-1" d="M127.34,11.21,92.81,64.73,57.25,11.15,54.67,7.26l-4.4,1.57L10,23.28,6,24.69V186.5l8.69-4.45L55,161.37l3.25-1.66V108l30,28.61,4.12,3.93,4.12-3.93,30-28.61v51.79l3.32,1.64,40.6,20.11,8.61,4.26V24.68l-4-1.41L134.35,8.83,129.9,7.25Z"/><path class="cls-2" d="M127.34,11.21,92.81,64.73,57.25,11.15,54.67,7.26l-4.4,1.57L10,23.28,6,24.69V186.5l8.69-4.45L55,161.37l3.25-1.66V108l30,28.61,4.12,3.93,4.12-3.93,30-28.61v51.79l3.32,1.64,40.6,20.11,8.61,4.26V24.68l-4-1.41L134.35,8.83,129.9,7.25Z"/><path class="cls-3" d="M155.39,151.7,138,161.94l-.16-19.19,17.73-10.24L190,151.86l-.16,19.68Z"/><path class="cls-4" d="M121.73,191.54V152l16.1-9.27.33,38.87,34.63,19.51-17.07,9.76Z"/><path class="cls-5" d="M121.73,152l-17.56-9.43V201l51.55,29.43V210.89l-34-19.35Z"/><path class="cls-6" d="M206.78,141.94,155.39,113l-51.22,29.6L121.73,152l33.83-19.51,34.31,19.35Z"/><path class="cls-7" d="M189.87,191.21l-34.15,19.68V230.4L206.29,201l.33-59-16.75,9.92Z"/><path class="cls-8" d="M172.63,161.45l17.24,10.09v19.67l-34.15,19.68-16.91-9.76,33.82-19.67Z"/></g></g></svg>